<?xml version="1.0" encoding="iso-8859-1"?>
<!-- Generator: Adobe Illustrator 19.0.0, SVG Export Plug-In . SVG Version: 6.00 Build 0)  -->
<svg version="1.1" id="Layer_1" xmlns="http://www.w3.org/2000/svg" xmlns:xlink="http://www.w3.org/1999/xlink" x="0px" y="0px"
	 viewBox="0 0 512 512" style="enable-background:new 0 0 512 512;" xml:space="preserve">
<g>
	<g>
		<path d="M271.208,272.376v52.708c25.877-4.466,25.88-20.52,25.88-26.354C297.088,292.895,297.085,276.843,271.208,272.376z"/>
	</g>
</g>
<g>
	<g>
		<path d="M214.912,213.269c0,5.835,0.003,21.887,25.88,26.354v-52.708C214.915,191.382,214.912,207.435,214.912,213.269z"/>
	</g>
</g>
<g>
	<g>
		<path d="M256,71.478C154.254,71.478,71.478,154.254,71.478,256S154.254,440.522,256,440.522S440.522,357.746,440.522,256
			S357.746,71.478,256,71.478z M125.692,277.205c-11.693,0-21.206-9.513-21.206-21.205c0-11.692,9.513-21.205,21.206-21.205
			s21.205,9.513,21.205,21.205C146.897,267.692,137.385,277.205,125.692,277.205z M327.503,298.73
			c0,31.958-20.751,52.561-56.295,57.019v21.914h-30.416v-21.914c-35.545-4.457-56.295-25.062-56.295-57.019h30.416
			c0,5.835,0.003,21.887,25.88,26.354v-54.796c-35.545-4.457-56.295-25.062-56.295-57.019c0-31.958,20.751-52.561,56.295-57.019
			v-21.914h30.416v21.914c35.545,4.457,56.295,25.062,56.295,57.019h-30.416c0-5.835-0.003-21.887-25.88-26.354v54.796
			C306.753,246.169,327.503,266.772,327.503,298.73z M386.309,277.205c-11.693,0-21.206-9.513-21.206-21.205
			c0-11.692,9.513-21.205,21.206-21.205s21.205,9.513,21.205,21.205C407.514,267.692,398.002,277.205,386.309,277.205z"/>
	</g>
</g>
<g>
	<g>
		<path d="M437.019,74.981C388.667,26.629,324.38,0,256,0S123.333,26.629,74.981,74.981S0,187.62,0,256
			s26.629,132.667,74.981,181.019C123.333,485.371,187.62,512,256,512s132.667-26.629,181.019-74.981
			C485.371,388.667,512,324.38,512,256S485.371,123.333,437.019,74.981z M256,470.938c-118.517,0-214.938-96.421-214.938-214.938
			S137.483,41.062,256,41.062S470.938,137.483,470.938,256S374.517,470.938,256,470.938z"/>
	</g>
</g>
<g>
</g>
<g>
</g>
<g>
</g>
<g>
</g>
<g>
</g>
<g>
</g>
<g>
</g>
<g>
</g>
<g>
</g>
<g>
</g>
<g>
</g>
<g>
</g>
<g>
</g>
<g>
</g>
<g>
</g>
</svg>
